<svg width="14" height="14" viewBox="0 0 14 14" fill="none" xmlns="http://www.w3.org/2000/svg">
<path d="M4.17774 8.07752C4.05358 7.83807 3.75883 7.74461 3.51938 7.86877C3.27993 7.99293 3.18647 8.28769 3.31063 8.52713C3.56951 9.02639 4.05148 9.57344 4.67424 9.99688C5.30143 10.4233 6.10082 10.7442 7 10.7442C7.89918 10.7442 8.69857 10.4233 9.32576 9.99688C9.94852 9.57344 10.4305 9.02639 10.6894 8.52713C10.8135 8.28769 10.7201 7.99293 10.4806 7.86877C10.2412 7.74461 9.94642 7.83807 9.82226 8.07752C9.64703 8.41547 9.28249 8.84516 8.77656 9.18917C8.27507 9.53015 7.66361 9.76744 7 9.76744C6.33639 9.76744 5.72493 9.53015 5.22344 9.18917C4.71751 8.84516 4.35297 8.41547 4.17774 8.07752Z" fill="#FDF171"/>
<path fill-rule="evenodd" clip-rule="evenodd" d="M7 0C3.13401 0 0 3.13401 0 7C0 10.866 3.13401 14 7 14C10.866 14 14 10.866 14 7C14 3.13401 10.866 0 7 0ZM0.976744 7C0.976744 3.67345 3.67345 0.976744 7 0.976744C10.3266 0.976744 13.0233 3.67345 13.0233 7C13.0233 10.3266 10.3266 13.0233 7 13.0233C3.67345 13.0233 0.976744 10.3266 0.976744 7Z" fill="#FDF171"/>
<path d="M5.69767 4.39535C5.69767 4.75498 5.40614 5.04651 5.04651 5.04651C4.68688 5.04651 4.39535 4.75498 4.39535 4.39535C4.39535 4.03572 4.68688 3.74419 5.04651 3.74419C5.40614 3.74419 5.69767 4.03572 5.69767 4.39535Z" fill="#FDF171"/>
<path d="M9.60465 4.39535C9.60465 4.75498 9.31312 5.04651 8.95349 5.04651C8.59386 5.04651 8.30233 4.75498 8.30233 4.39535C8.30233 4.03572 8.59386 3.74419 8.95349 3.74419C9.31312 3.74419 9.60465 4.03572 9.60465 4.39535Z" fill="#FDF171"/>
</svg>
