<svg width="49" height="55" viewBox="0 0 49 55" fill="none" xmlns="http://www.w3.org/2000/svg">
<path d="M23.1786 13.3248V9.79782C22.3335 9.57324 21.5625 9.12961 20.9434 8.51166C20.3242 7.89371 19.8788 7.12329 19.652 6.27809C19.4253 5.43288 19.4252 4.54278 19.6517 3.69753C19.8783 2.85228 20.3236 2.08176 20.9426 1.46368C21.4033 1.00098 21.9508 0.633851 22.5536 0.383352C23.1564 0.132853 23.8027 0.00390625 24.4554 0.00390625C25.1081 0.00390625 25.7543 0.132853 26.3571 0.383352C26.9599 0.633851 27.5074 1.00098 27.9682 1.46368C28.5982 2.09238 29.0483 2.8786 29.2717 3.7405C29.4951 4.60241 29.4836 5.50849 29.2384 6.36444C28.9932 7.22039 28.5233 7.99493 27.8776 8.60742C27.2318 9.21991 26.4338 9.64798 25.5667 9.84706V13.1906L25.4907 13.1548C25.3556 13.118 25.2181 13.0911 25.0792 13.0742C24.8945 13.0636 24.7094 13.0636 24.5247 13.0742H24.4621C24.3125 13.0736 24.163 13.0841 24.0149 13.1055C23.912 13.1055 23.7868 13.1503 23.6482 13.1861C23.4957 13.2206 23.3462 13.267 23.201 13.3248H23.1652H23.1786ZM15.129 21.1622L24.1938 16.082L24.3056 16.0372C24.3994 16.0068 24.4976 15.9917 24.5962 15.9925C24.6808 15.9916 24.765 16.0021 24.8467 16.0238C24.9181 16.0385 24.9854 16.0691 25.0434 16.1133L34.0143 21.3099C34.2295 21.3924 34.4064 21.5519 34.5107 21.7575C34.6043 21.9368 34.6505 22.1371 34.6449 22.3393V32.8174C34.634 32.9894 34.5794 33.1557 34.4862 33.3006C34.3931 33.4455 34.2645 33.5642 34.1127 33.6455L25.1016 38.8868C25.0366 38.922 24.9675 38.9491 24.8959 38.9673C24.7164 39.021 24.5253 39.021 24.3458 38.9673C24.2575 38.942 24.1732 38.9044 24.0954 38.8554L14.8785 33.4843C14.7308 33.4036 14.6056 33.2872 14.5142 33.1457C14.4228 33.0042 14.3682 32.8422 14.3553 32.6742V22.1379C14.3562 21.914 14.4314 21.6967 14.569 21.5201C14.7066 21.3435 14.8988 21.2176 15.1155 21.1622H15.129ZM23.6258 36.2952V28.0954L16.3677 23.7761V32.0297L23.6169 36.2952H23.6258ZM32.6459 23.9014L25.6293 28.0998V36.3042L32.6459 32.164V23.9014ZM24.5962 18.1141L17.7496 22.2051L24.6275 26.3497L31.2998 22.3214L24.5962 18.1141ZM25.6338 45.2068C26.5154 45.4254 27.3209 45.8804 27.9637 46.5227C28.426 46.9838 28.7928 47.5318 29.0431 48.1351C29.2933 48.7384 29.4222 49.3852 29.4222 50.0385C29.4222 50.6918 29.2933 51.3386 29.0431 51.9419C28.7928 52.5452 28.426 53.0932 27.9637 53.5543C27.5029 54.017 26.9555 54.3842 26.3527 54.6347C25.7499 54.8852 25.1036 55.0141 24.4509 55.0141C23.7982 55.0141 23.1519 54.8852 22.5491 54.6347C21.9463 54.3842 21.3989 54.017 20.9381 53.5543C20.4758 53.0932 20.109 52.5452 19.8587 51.9419C19.6085 51.3386 19.4796 50.6918 19.4796 50.0385C19.4796 49.3852 19.6085 48.7384 19.8587 48.1351C20.109 47.5318 20.4758 46.9838 20.9381 46.5227C21.576 45.8808 22.377 45.4258 23.2546 45.2068V41.7155C23.3511 41.7551 23.4497 41.7894 23.5498 41.8185L23.7197 41.8633C23.8339 41.8966 23.9505 41.9205 24.0685 41.9349C24.2549 41.9653 24.4432 41.9818 24.632 41.9841C24.8208 41.9819 25.0092 41.9655 25.1955 41.9349C25.3469 41.914 25.4965 41.8811 25.6427 41.8364V45.2068H25.6338ZM26.2777 48.2056C25.7906 47.724 25.1334 47.4539 24.4487 47.4539C23.7639 47.4539 23.1068 47.724 22.6196 48.2056C22.1381 48.694 21.8682 49.3524 21.8682 50.0385C21.8682 50.7246 22.1381 51.3831 22.6196 51.8714C23.1068 52.353 23.7639 52.6231 24.4487 52.6231C25.1334 52.6231 25.7906 52.353 26.2777 51.8714C26.7614 51.3842 27.0328 50.7253 27.0328 50.0385C27.0328 49.3517 26.7614 48.6928 26.2777 48.2056ZM26.2777 3.13319C25.7906 2.65157 25.1334 2.38149 24.4487 2.38149C23.7639 2.38149 23.1068 2.65157 22.6196 3.13319C22.1381 3.62153 21.8682 4.28 21.8682 4.96608C21.8682 5.65215 22.1381 6.31063 22.6196 6.79896C23.1074 7.283 23.7663 7.55483 24.4531 7.55539C24.9647 7.55466 25.4646 7.40227 25.8897 7.11746C26.3149 6.83264 26.6462 6.42817 26.8418 5.95508C27.0375 5.482 27.0888 4.9615 26.9892 4.45927C26.8896 3.95705 26.6436 3.49561 26.2822 3.13319H26.2777ZM44.0227 33.7663C45.3413 33.7671 46.6057 34.2919 47.5377 35.2255C48 35.6866 48.3668 36.2346 48.6171 36.8379C48.8674 37.4412 48.9962 38.088 48.9962 38.7413C48.9962 39.3946 48.8674 40.0414 48.6171 40.6447C48.3668 41.248 48 41.796 47.5377 42.2571C46.7544 43.041 45.732 43.5407 44.6326 43.6769C43.5333 43.8131 42.42 43.578 41.4693 43.0089C40.5186 42.4399 39.785 41.5694 39.3848 40.5356C38.9845 39.5019 38.9406 38.3639 39.26 37.3023L36.3487 35.6194C36.6011 35.3822 36.8193 35.111 36.9972 34.8137C37.0816 34.669 37.1578 34.5195 37.2252 34.3661C37.2957 34.222 37.354 34.0723 37.3997 33.9185C37.4418 33.7849 37.4762 33.6489 37.5025 33.5112L40.4764 35.23L40.5032 35.1986C41.4367 34.2644 42.7027 33.7395 44.0227 33.7395V33.7663ZM45.8518 36.8995C45.4891 36.5384 45.0277 36.293 44.5258 36.1941C44.0239 36.0952 43.504 36.1473 43.0317 36.3439C42.5593 36.5404 42.1558 36.8726 41.8719 37.2985C41.5879 37.7243 41.4364 38.2249 41.4364 38.7368C41.4364 39.2488 41.5879 39.7493 41.8719 40.1752C42.1558 40.6011 42.5593 40.9332 43.0317 41.1298C43.504 41.3263 44.0239 41.3785 44.5258 41.2796C45.0277 41.1807 45.4891 40.9353 45.8518 40.5742C46.3354 40.087 46.6069 39.4281 46.6069 38.7413C46.6069 38.0545 46.3354 37.3956 45.8518 36.9084V36.8995ZM4.97746 33.7663C6.27006 33.7659 7.51186 34.2701 8.43881 35.1718L11.4977 33.3814L11.5245 33.4888L11.5961 33.7619C11.6506 33.9423 11.7209 34.1175 11.8062 34.2855C11.8551 34.4071 11.915 34.524 11.9851 34.6347C12.1643 34.9284 12.3808 35.1977 12.6291 35.4358L12.6559 35.4627L9.70439 37.168C10.064 38.2335 10.0525 39.3895 9.67172 40.4477C9.29093 41.5058 8.5633 42.4036 7.60742 42.9949C6.65154 43.5862 5.52376 43.836 4.40788 43.7036C3.29199 43.5713 2.25378 43.0646 1.46245 42.2661C0.766369 41.5694 0.292335 40.6817 0.100289 39.7154C-0.0917564 38.7491 0.00681192 37.7474 0.38353 36.8371C0.760248 35.9269 1.3982 35.1488 2.2167 34.6015C3.03521 34.0541 3.99752 33.7619 4.98193 33.7619L4.97746 33.7663ZM6.80652 36.8995C6.31975 36.4154 5.66142 36.1437 4.97523 36.1437C4.28903 36.1437 3.6307 36.4154 3.14393 36.8995C2.66137 37.3872 2.39067 38.0459 2.39067 38.7324C2.39067 39.4188 2.66137 40.0775 3.14393 40.5652H3.13051C3.61843 41.0471 4.27633 41.3173 4.96181 41.3173C5.64729 41.3173 6.30519 41.0471 6.7931 40.5652C7.27702 40.0773 7.54858 39.4176 7.54858 38.7301C7.54858 38.0426 7.27702 37.383 6.7931 36.895L6.80652 36.8995ZM44.0227 11.248C45.0081 11.2459 45.9719 11.5368 46.7918 12.0838C47.6117 12.6309 48.2507 13.4094 48.6278 14.3205C49.0049 15.2317 49.103 16.2344 48.9098 17.2015C48.7165 18.1686 48.2405 19.0564 47.5422 19.7523C47.0804 20.2147 46.5321 20.5815 45.9286 20.8318C45.3251 21.0821 44.6782 21.2109 44.025 21.2109C43.3717 21.2109 42.7248 21.0821 42.1213 20.8318C41.5178 20.5815 40.9695 20.2147 40.5077 19.7523L40.4406 19.6941L37.4846 21.3949C37.4025 21.0167 37.2637 20.653 37.0732 20.3162C36.8712 19.9462 36.6115 19.6108 36.304 19.3226L39.2466 17.6217C38.9924 16.764 38.975 15.8533 39.1963 14.9865C39.4175 14.1196 39.8692 13.3289 40.5032 12.6982C40.9642 12.2352 41.512 11.8679 42.1152 11.6175C42.7185 11.367 43.3652 11.2384 44.0183 11.2391L44.0227 11.248ZM45.8518 14.3812C45.3652 13.8985 44.7078 13.6276 44.0227 13.6276C43.3376 13.6276 42.6803 13.8985 42.1937 14.3812C41.7074 14.8673 41.434 15.5268 41.4335 16.2147C41.4331 16.9026 41.7057 17.5625 42.1914 18.0492C42.6771 18.5359 43.3361 18.8095 44.0234 18.81C44.7107 18.8104 45.37 18.5375 45.8563 18.0514C46.0968 17.8107 46.2876 17.525 46.4178 17.2105C46.548 16.896 46.615 16.5589 46.615 16.2185C46.615 15.8781 46.548 15.541 46.4178 15.2265C46.2876 14.912 46.0968 14.6263 45.8563 14.3856L45.8518 14.3812ZM4.97746 11.248C5.63157 11.2448 6.27974 11.3722 6.88406 11.6228C7.48837 11.8733 8.0367 12.242 8.49695 12.7072C8.96066 13.1668 9.32838 13.7141 9.57867 14.3173C9.82896 14.9206 9.95683 15.5676 9.95483 16.2208C9.95444 16.6157 9.90792 17.0093 9.81619 17.3934L12.7588 19.1838C12.6251 19.2989 12.501 19.4246 12.3876 19.5598C12.1457 19.8366 11.9453 20.1472 11.7928 20.4818L11.6721 20.7504C11.6184 20.907 11.5692 21.0592 11.529 21.198L8.71608 19.4882C8.64774 19.5715 8.57457 19.6507 8.49695 19.7254C8.04628 20.2279 7.49815 20.6334 6.88593 20.9172C6.2737 21.201 5.61019 21.3571 4.93576 21.3761C4.26134 21.395 3.59011 21.2764 2.96293 21.0275C2.33576 20.7786 1.76576 20.4045 1.28761 19.9281C0.809474 19.4516 0.433197 18.8828 0.181687 18.2562C-0.0698236 17.6296 -0.191307 16.9583 -0.17537 16.2832C-0.159433 15.6082 -0.00640848 14.9434 0.27439 14.3294C0.555188 13.7153 0.957887 13.1649 1.45798 12.7116C1.91889 12.2486 2.46672 11.8813 3.06995 11.6309C3.67319 11.3805 4.31993 11.2519 4.97299 11.2525L4.97746 11.248ZM6.80652 14.3812C6.31861 13.8993 5.66071 13.6291 4.97523 13.6291C4.28975 13.6291 3.63184 13.8993 3.14393 14.3812H3.13051C2.64903 14.8695 2.37907 15.528 2.37907 16.214C2.37907 16.9001 2.64903 17.5586 3.13051 18.0469C3.49265 18.4104 3.95449 18.6581 4.45746 18.7585C4.96042 18.859 5.48186 18.8076 5.95564 18.611C6.42942 18.4145 6.8342 18.0815 7.11865 17.6543C7.40309 17.2272 7.55439 16.7251 7.55335 16.2118C7.55452 15.8722 7.48877 15.5357 7.35985 15.2216C7.23093 14.9075 7.04138 14.6219 6.80205 14.3812H6.80652Z" fill="url(#paint0_linear_6_37)"/>
<defs>
<linearGradient id="paint0_linear_6_37" x1="24.4148" y1="0.00390625" x2="24.4148" y2="55.0141" gradientUnits="userSpaceOnUse">
<stop stop-color="#5E9FF1"/>
<stop offset="1" stop-color="#5F70F2"/>
</linearGradient>
</defs>
</svg>
