<svg width="23" height="23" viewBox="0 0 23 23" fill="none" xmlns="http://www.w3.org/2000/svg">
<path d="M20.125 15.3334V7.66674C20.1247 7.33062 20.0359 7.00051 19.8677 6.70952C19.6995 6.41852 19.4577 6.17687 19.1667 6.00882L12.4583 2.17549C12.167 2.00726 11.8364 1.9187 11.5 1.9187C11.1636 1.9187 10.833 2.00726 10.5417 2.17549L3.83333 6.00882C3.54225 6.17687 3.30048 6.41852 3.13228 6.70952C2.96407 7.00051 2.87534 7.33062 2.875 7.66674V15.3334C2.87534 15.6695 2.96407 15.9996 3.13228 16.2906C3.30048 16.5816 3.54225 16.8233 3.83333 16.9913L10.5417 20.8247C10.833 20.9929 11.1636 21.0814 11.5 21.0814C11.8364 21.0814 12.167 20.9929 12.4583 20.8247L19.1667 16.9913C19.4577 16.8233 19.6995 16.5816 19.8677 16.2906C20.0359 15.9996 20.1247 15.6695 20.125 15.3334Z" stroke="#5E9FF1" stroke-width="2" stroke-linecap="round" stroke-linejoin="round"/>
<path d="M20.125 11.5L15.8125 13.9917V18.9654" stroke="#5E9FF1" stroke-width="2" stroke-linecap="round" stroke-linejoin="round"/>
<path d="M7.1875 18.9654V13.9917L2.875 11.5" stroke="#5E9FF1" stroke-width="2" stroke-linecap="round" stroke-linejoin="round"/>
<path d="M3.13379 6.66992L11.5 11.5095L19.8663 6.66992" stroke="#5E9FF1" stroke-width="2" stroke-linecap="round" stroke-linejoin="round"/>
<path d="M11.5 21.16V11.5" stroke="#5E9FF1" stroke-width="2" stroke-linecap="round" stroke-linejoin="round"/>
<path d="M7.1875 4.03467L11.5 6.52633L15.8125 4.03467" stroke="#5E9FF1" stroke-width="2" stroke-linecap="round" stroke-linejoin="round"/>
</svg>
