<svg width="15" height="11" viewBox="0 0 15 11" fill="none" xmlns="http://www.w3.org/2000/svg">
<path fill-rule="evenodd" clip-rule="evenodd" d="M7.5 0C6.17804 0 5.10638 1.07166 5.10638 2.39362C5.10638 3.71558 6.17804 4.78723 7.5 4.78723C8.82196 4.78723 9.89362 3.71558 9.89362 2.39362C9.89362 1.07166 8.82196 0 7.5 0ZM6.06383 2.39362C6.06383 1.60044 6.70683 0.957447 7.5 0.957447C8.29317 0.957447 8.93617 1.60044 8.93617 2.39362C8.93617 3.18679 8.29317 3.82979 7.5 3.82979C6.70683 3.82979 6.06383 3.18679 6.06383 2.39362Z" fill="#EB539F"/>
<path fill-rule="evenodd" clip-rule="evenodd" d="M5.58511 5.74468C4.26315 5.74468 3.19149 6.81634 3.19149 8.1383C3.19149 9.46026 4.26315 10.5319 5.58511 10.5319H9.41489C10.7369 10.5319 11.8085 9.46026 11.8085 8.1383C11.8085 6.81634 10.7369 5.74468 9.41489 5.74468H5.58511ZM4.14894 8.1383C4.14894 7.34512 4.79193 6.70213 5.58511 6.70213H9.41489C10.2081 6.70213 10.8511 7.34512 10.8511 8.1383C10.8511 8.93147 10.2081 9.57447 9.41489 9.57447H5.58511C4.79193 9.57447 4.14894 8.93147 4.14894 8.1383Z" fill="#EB539F"/>
<path d="M4.7886 4.07786C4.68792 3.91613 4.49902 3.82979 4.30851 3.82979C3.51534 3.82979 2.87234 3.18679 2.87234 2.39362C2.87234 1.60044 3.51534 0.957447 4.30851 0.957447C4.49902 0.957447 4.68792 0.871103 4.7886 0.70937C4.79305 0.702217 4.79753 0.695083 4.80204 0.687968C4.96966 0.423388 4.88473 0.0487663 4.5734 0.0144914C4.48642 0.00491553 4.39804 0 4.30851 0C2.98655 0 1.91489 1.07166 1.91489 2.39362C1.91489 3.71558 2.98655 4.78723 4.30851 4.78723C4.39804 4.78723 4.48643 4.78232 4.57341 4.77274C4.88473 4.73847 4.96966 4.36385 4.80204 4.09927C4.79753 4.09215 4.79305 4.08502 4.7886 4.07786Z" fill="#EB539F"/>
<path d="M2.84572 9.13843C2.77326 9.01754 2.64536 8.93617 2.50442 8.93617H2.39362C1.60044 8.93617 0.957447 8.29317 0.957447 7.5C0.957447 6.70683 1.60044 6.06383 2.39362 6.06383H2.50442C2.64536 6.06383 2.77326 5.98246 2.84572 5.86157C3.02259 5.56648 2.83065 5.10638 2.48661 5.10638H2.39362C1.07166 5.10638 0 6.17804 0 7.5C0 8.82196 1.07166 9.89362 2.39362 9.89362H2.48661C2.83065 9.89362 3.02259 9.43352 2.84572 9.13843Z" fill="#EB539F"/>
<path d="M10.198 4.09927C10.0303 4.36385 10.1153 4.73847 10.4266 4.77274C10.5136 4.78232 10.602 4.78723 10.6915 4.78723C12.0134 4.78723 13.0851 3.71558 13.0851 2.39362C13.0851 1.07166 12.0134 0 10.6915 0C10.602 0 10.5136 0.00491556 10.4266 0.0144915C10.1153 0.0487665 10.0303 0.423388 10.198 0.687968C10.2025 0.695082 10.2069 0.702216 10.2114 0.709368C10.3121 0.871101 10.501 0.957447 10.6915 0.957447C11.4847 0.957447 12.1277 1.60044 12.1277 2.39362C12.1277 3.18679 11.4847 3.82979 10.6915 3.82979C10.501 3.82979 10.3121 3.91613 10.2114 4.07786C10.2069 4.08502 10.2025 4.09215 10.198 4.09927Z" fill="#EB539F"/>
<path d="M12.1543 9.13843C11.9774 9.43352 12.1693 9.89362 12.5134 9.89362H12.6064C13.9283 9.89362 15 8.82196 15 7.5C15 6.17804 13.9283 5.10638 12.6064 5.10638H12.5134C12.1693 5.10638 11.9774 5.56648 12.1543 5.86157C12.2267 5.98246 12.3546 6.06383 12.4956 6.06383H12.6064C13.3996 6.06383 14.0426 6.70683 14.0426 7.5C14.0426 8.29317 13.3996 8.93617 12.6064 8.93617H12.4956C12.3546 8.93617 12.2267 9.01754 12.1543 9.13843Z" fill="#EB539F"/>
</svg>
