<svg width="46" height="50" viewBox="0 0 46 50" fill="none" xmlns="http://www.w3.org/2000/svg">
<path fill-rule="evenodd" clip-rule="evenodd" d="M42.7198 28.0518C44.7633 30.3792 46 33.4351 46 36.7798C46 44.0796 40.1045 50 32.8264 50C27.7784 50 23.3913 47.1476 21.1815 42.9647H15.1766V45.7886H6.21578V42.9647H0.00405465V39.6851H6.21578V36.8327H9.06214V30.3752H2.93557C2.12869 30.3752 1.3948 30.0456 0.86364 29.5125C0.328427 28.9795 0 28.243 0 27.4333V17.0858C0 16.3656 0.259498 15.7023 0.693345 15.1896C0.259498 14.6769 0 14.0137 0 13.2894V2.94596C0 2.13623 0.328427 1.39974 0.859586 0.866699C1.39074 0.32959 2.12464 0 2.93557 0H39.8572C40.6641 0 41.398 0.32959 41.9291 0.86263C42.4603 1.39567 42.7887 2.13216 42.7887 2.94189V13.2894C42.7887 14.0096 42.5252 14.6729 42.0954 15.1855C42.5292 15.6982 42.7887 16.3615 42.7887 17.0817V27.4292C42.7887 27.6408 42.7644 27.8483 42.7198 28.0518ZM36.6703 34.0007C36.8649 33.9681 37.0595 33.9559 37.2582 33.9559C38.0813 33.96 38.8719 34.257 39.4963 34.9325C39.6261 35.0749 39.7518 35.2336 39.8653 35.4126C40.2586 36.0148 40.4573 36.8245 40.4492 37.6139C40.4411 38.387 40.2302 39.1602 39.8086 39.7257C39.5328 40.096 39.176 40.3971 38.7503 40.6372C38.3408 40.8691 37.8583 41.0441 37.3231 41.1702L37.2217 41.1825H28.2771L28.2204 41.1784C27.8919 41.1377 27.5959 41.0604 27.3283 40.9465C27.0526 40.8325 26.8053 40.682 26.5863 40.4989C26.3796 40.328 26.2011 40.1327 26.0471 39.9211C25.6376 39.3555 25.4186 38.6637 25.4145 37.9801C25.4105 37.2843 25.6254 36.5926 26.0917 36.0352C26.2417 35.8521 26.4201 35.6893 26.6228 35.5387C26.858 35.3678 27.1297 35.2214 27.4338 35.1034C27.6446 35.022 27.8676 34.9528 28.1068 34.8958C28.3744 33.8216 28.9502 32.9956 29.6881 32.4219C30.3774 31.8848 31.2086 31.5715 32.0642 31.4901C32.9156 31.4087 33.7915 31.5511 34.5781 31.9295C35.4376 32.3405 36.1837 33.0322 36.6703 34.0007ZM19.9773 39.6851C19.7664 38.7492 19.6569 37.7767 19.6569 36.7798C19.6569 34.4564 20.257 32.2713 21.3031 30.3752H12.3261V36.8368H15.1725V39.6891H19.9773V39.6851ZM10.6962 39.27C11.8193 39.27 12.7316 40.1855 12.7316 41.3127C12.7316 42.4398 11.8193 43.3553 10.6962 43.3553C9.57303 43.3553 8.66073 42.4398 8.66073 41.3127C8.66073 40.1855 9.56897 39.27 10.6962 39.27ZM5.74544 5.30192H7.91468V10.9375H5.74544V5.30192ZM35.5552 20.5322C36.504 20.5322 37.2744 21.3053 37.2744 22.2575C37.2744 23.0713 36.7149 23.7508 35.9607 23.9339C36.6419 24.1007 37.3028 24.3205 37.9394 24.589C38.9327 25.0081 39.8653 25.5412 40.7208 26.18V17.0858C40.7208 16.8498 40.6235 16.63 40.4654 16.4754C40.3438 16.3534 40.1856 16.2679 40.0113 16.2354C39.9586 16.2394 39.9059 16.2394 39.8572 16.2394H2.93557C2.88286 16.2394 2.83015 16.2394 2.78149 16.2354C2.60714 16.2679 2.44901 16.3534 2.32737 16.4754C2.16518 16.63 2.06787 16.8457 2.06787 17.0858V27.4333C2.06787 27.6693 2.16518 27.889 2.32331 28.0436C2.48145 28.2023 2.69634 28.3 2.93151 28.3H22.6249C23.817 26.884 25.2929 25.7202 26.9634 24.9023C28.7272 24.0397 30.7059 23.5555 32.7981 23.5555C33.3982 23.5555 33.9901 23.5962 34.5699 23.6735C34.1239 23.3602 33.8361 22.8434 33.8361 22.2575C33.8361 21.3053 34.6064 20.5322 35.5552 20.5322ZM29.007 20.5322C29.9558 20.5322 30.7261 21.3053 30.7261 22.2575C30.7261 23.2096 29.9558 23.9827 29.007 23.9827C28.0582 23.9827 27.2878 23.2096 27.2878 22.2575C27.2878 21.3053 28.0582 20.5322 29.007 20.5322ZM17.7391 19.4417H19.9083V25.0773H17.7391V19.4417ZM11.7423 19.4417H13.9115V25.0773H11.7423V19.4417ZM5.74544 19.4417H7.91468V25.0773H5.74544V19.4417ZM35.5552 6.39242C36.504 6.39242 37.2744 7.16553 37.2744 8.11768C37.2744 9.06983 36.504 9.84294 35.5552 9.84294C34.6064 9.84294 33.8361 9.06983 33.8361 8.11768C33.8361 7.16553 34.6064 6.39242 35.5552 6.39242ZM29.007 6.39242C29.9558 6.39242 30.7261 7.16553 30.7261 8.11768C30.7261 9.06983 29.9558 9.84294 29.007 9.84294C28.0582 9.84294 27.2878 9.06983 27.2878 8.11768C27.2878 7.16553 28.0582 6.39242 29.007 6.39242ZM17.7391 5.30192H19.9083V10.9375H17.7391V5.30192ZM11.7423 5.30192H13.9115V10.9375H11.7423V5.30192ZM2.77744 14.1439C2.83015 14.1398 2.88286 14.1398 2.93151 14.1398H39.8532C39.9059 14.1398 39.9586 14.1398 40.0072 14.1439C40.1816 14.1113 40.3397 14.0259 40.4613 13.9038C40.6195 13.7451 40.7168 13.5295 40.7168 13.2935V2.94596C40.7168 2.70996 40.6195 2.49023 40.4613 2.33154C40.3032 2.17285 40.0883 2.0752 39.8532 2.0752H2.93557C2.7004 2.0752 2.48145 2.17285 2.32331 2.33154C2.16518 2.49023 2.06787 2.70589 2.06787 2.94596V13.2935C2.06787 13.5295 2.16518 13.7492 2.32331 13.9038C2.44495 14.0259 2.60309 14.1113 2.77744 14.1439ZM39.7193 28.0151C38.9368 27.4048 38.0732 26.8921 37.1487 26.5015C35.8147 25.9399 34.3429 25.6307 32.8021 25.6307C31.8412 25.6307 30.9086 25.7528 30.0166 25.9806C25.2361 27.2339 21.7086 31.5959 21.7086 36.7839C21.7086 42.9484 26.6877 47.9492 32.8346 47.9492C38.9814 47.9492 43.9605 42.9525 43.9605 36.7839C43.9524 33.2275 42.2981 30.0618 39.7193 28.0151Z" fill="url(#paint0_linear_6_42)"/>
<defs>
<linearGradient id="paint0_linear_6_42" x1="23" y1="0" x2="23" y2="50" gradientUnits="userSpaceOnUse">
<stop stop-color="#5E9FF1"/>
<stop offset="1" stop-color="#5F70F2"/>
</linearGradient>
</defs>
</svg>
