<svg width="14" height="14" viewBox="0 0 14 14" fill="none" xmlns="http://www.w3.org/2000/svg">
<path fill-rule="evenodd" clip-rule="evenodd" d="M5.94391 5.13099e-08H7.35351C8.28892 -3.11904e-06 9.02228 -5.59892e-06 9.61169 0.0481516C10.2119 0.0971887 10.7077 0.198697 11.1565 0.427367C11.8943 0.80329 12.4941 1.40313 12.8701 2.14092C13.0987 2.58971 13.2002 3.08554 13.2493 3.68573C13.2974 4.27514 13.2974 5.0085 13.2974 5.94389V7.82379C13.2974 7.99869 13.2974 8.10517 13.293 8.19797C13.1974 10.2177 11.5816 11.8336 9.56181 11.9292C9.46899 11.9336 9.35175 11.9336 9.15738 11.9336H9.13796L9.08665 11.9336C8.49529 11.9374 7.91923 12.122 7.43582 12.4627L7.40233 12.4865L5.62202 13.7582C4.59607 14.491 3.2479 13.4327 3.71615 12.2621C3.77908 12.1047 3.66321 11.9336 3.49375 11.9336H3.0834C1.38049 11.9336 1.32601e-07 10.5531 1.32601e-07 8.85018L5.13099e-08 5.94391C-3.11904e-06 5.00851 -5.59892e-06 4.27515 0.0481516 3.68573C0.0971887 3.08554 0.198697 2.58971 0.427367 2.14092C0.80329 1.40313 1.40313 0.80329 2.14092 0.427367C2.58971 0.198697 3.08554 0.0971887 3.68573 0.0481516C4.27515 -5.59892e-06 5.00851 -3.11904e-06 5.94391 5.13099e-08ZM3.76902 1.06763C3.23209 1.1115 2.88586 1.19581 2.6053 1.33876C2.05998 1.61661 1.61661 2.05998 1.33876 2.6053C1.19581 2.88586 1.1115 3.23209 1.06763 3.76902C1.02328 4.31192 1.02288 5.00358 1.02288 5.96679V8.85018C1.02288 9.98818 1.94541 10.9107 3.0834 10.9107H3.49375C4.38686 10.9107 4.99756 11.8127 4.66587 12.642C4.57702 12.8641 4.83282 13.0649 5.02748 12.9258L6.80779 11.6542L6.84663 11.6265C7.50066 11.1657 8.28002 10.9159 9.0801 10.9108L9.13796 10.9107C9.35736 10.9107 9.44816 10.9106 9.51344 10.9075C11.0063 10.8368 12.2006 9.64247 12.2713 8.1496C12.2744 8.08416 12.2745 8.00372 12.2745 7.80718V5.96679C12.2745 5.00358 12.2741 4.31192 12.2298 3.76902C12.1859 3.23209 12.1016 2.88586 11.9587 2.6053C11.6808 2.05998 11.2374 1.61661 10.6921 1.33876C10.4116 1.19581 10.0653 1.1115 9.5284 1.06763C8.9855 1.02328 8.29385 1.02288 7.33063 1.02288H5.96679C5.00358 1.02288 4.31192 1.02328 3.76902 1.06763Z" fill="#FAFAFA"/>
<path d="M4.60295 5.96679C4.60295 6.34341 4.29765 6.64871 3.92103 6.64871C3.54442 6.64871 3.23912 6.34341 3.23912 5.96679C3.23912 5.59018 3.54442 5.28487 3.92103 5.28487C4.29765 5.28487 4.60295 5.59018 4.60295 5.96679Z" fill="#FAFAFA"/>
<path d="M7.33063 5.96679C7.33063 6.34341 7.02532 6.64871 6.64871 6.64871C6.2721 6.64871 5.96679 6.34341 5.96679 5.96679C5.96679 5.59018 6.2721 5.28487 6.64871 5.28487C7.02532 5.28487 7.33063 5.59018 7.33063 5.96679Z" fill="#FAFAFA"/>
<path d="M10.0583 5.96679C10.0583 6.34341 9.753 6.64871 9.37639 6.64871C8.99977 6.64871 8.69447 6.34341 8.69447 5.96679C8.69447 5.59018 8.99977 5.28487 9.37639 5.28487C9.753 5.28487 10.0583 5.59018 10.0583 5.96679Z" fill="#FAFAFA"/>
</svg>
