<svg width="49" height="55" viewBox="0 0 49 55" fill="none" xmlns="http://www.w3.org/2000/svg">
<path d="M0.0221239 29.1248C0.00884956 29.4873 0 29.8543 0 30.2214C0 31.9312 0.163717 33.5828 0.486726 35.203C0.792035 36.792 1.26549 38.3228 1.89823 39.8267C1.89823 39.8446 1.91593 39.8714 1.92478 39.8893C2.5531 41.3888 3.31858 42.7897 4.19027 44.1101C5.05752 45.435 6.05752 46.6524 7.15929 47.7669C8.26106 48.8949 9.46903 49.893 10.7743 50.7658C12.0841 51.6565 13.4779 52.4174 14.9469 53.0575C16.4469 53.7109 17.9912 54.1854 19.5752 54.5121C21.1549 54.8344 22.8009 55 24.4911 55C26.1814 55 27.8142 54.8344 29.4159 54.5077C30.9867 54.1988 32.5 53.7199 33.9867 53.0798C34.0044 53.0798 34.031 53.0619 34.0487 53.053C35.5177 52.4174 36.9159 51.6431 38.2212 50.7613C39.531 49.884 40.7345 48.8725 41.8363 47.7625C42.9513 46.6479 43.9381 45.426 44.8053 44.1056C45.6858 42.7808 46.4336 41.3709 47.0708 39.8848C47.7168 38.3675 48.1858 36.8054 48.5089 35.203C48.8319 33.5962 48.9956 31.9312 48.9956 30.2214C48.9956 29.8543 48.9867 29.4918 48.9735 29.1292C32.7035 29.1248 16.3319 29.1248 0.0221239 29.1248ZM2.17257 31.3045H8.9469C9.19911 34.6928 10.3142 38.0945 12.2965 41.532H5.12832C4.67257 40.7308 4.26106 39.8983 3.89381 39.021C3.87611 39.0031 3.87611 38.9941 3.86726 38.9762C3.30973 37.6245 2.86726 36.2236 2.5885 34.7689C2.36283 33.641 2.22124 32.4951 2.17257 31.3045ZM6.52212 43.7028H13.677C15.7168 46.6748 18.4115 49.6647 21.7611 52.6636C21.1593 52.592 20.5708 52.498 20 52.3816C18.5442 52.0817 17.1504 51.652 15.7965 51.0567C14.4292 50.4659 13.1549 49.7632 11.9602 48.9575C10.7699 48.1563 9.68142 47.2477 8.66814 46.2227C7.88938 45.435 7.16814 44.6025 6.52212 43.7118V43.7028ZM27.2301 52.6636C30.5973 49.6602 33.2832 46.6748 35.3142 43.7028H42.469C41.823 44.5935 41.1018 45.4305 40.323 46.2138C39.3097 47.2388 38.2212 48.1474 37.031 48.9486C35.854 49.7498 34.5752 50.448 33.1947 51.0478C33.177 51.0657 33.1681 51.0657 33.1504 51.0746C31.8142 51.6386 30.4292 52.0862 28.9911 52.3682C28.4027 52.489 27.8142 52.5785 27.2301 52.6501V52.6636ZM43.8673 41.532H36.6947C38.6814 38.099 39.7965 34.6973 40.0442 31.3045H46.8186C46.7611 32.4951 46.6283 33.641 46.4071 34.7689C46.1106 36.2415 45.6858 37.6514 45.0973 39.021C44.7301 39.8938 44.3186 40.7308 43.8673 41.532ZM25.5708 51.2537V43.7028H32.6814C30.8142 46.2004 28.4469 48.7113 25.5708 51.2537ZM25.5708 41.532V31.3045H37.8982C37.6195 34.6659 36.385 38.0676 34.1814 41.532H25.5708ZM23.4248 31.3045V41.532H14.8142C12.6106 38.0676 11.3761 34.6615 11.0973 31.3045H23.4248ZM23.4248 43.7028V51.2537C20.5442 48.7113 18.177 46.2004 16.3097 43.7028H23.4248Z" fill="url(#paint0_linear_6_44)"/>
<path fill-rule="evenodd" clip-rule="evenodd" d="M36.9115 17.0711L37.677 17.0532L38.3142 17.0353C37.5664 14.7213 37.8186 12.5952 39.6062 10.7869C39.9071 11.7806 40.5885 12.5997 41.7478 13.2039C42.3009 13.6202 42.8363 14.1215 43.354 14.6989C43.4469 14.3139 43.0974 13.8529 42.6726 13.374C43.0664 13.5709 43.4248 13.844 43.6859 14.3721C43.9868 14.9853 43.9823 15.5045 43.8806 16.167C43.8319 16.4758 43.7611 16.7623 43.6549 17.0308H44.7124C45.8275 14.6094 45.1195 11.0197 42.8363 9.50234C42.1328 9.03685 41.6328 9.05475 40.8098 9.05475C39.8673 9.05475 39.385 9.08161 38.5797 9.62319C37.3938 10.4199 36.6637 11.794 36.354 13.7052C36.2965 14.6586 36.2522 16.3057 36.9115 17.0711ZM0.424805 25.6514C0.517725 23.0375 3.61507 22.9346 6.03542 21.4083L7.65489 25.6514H0.424805ZM10.9248 24.2147H11.2434C11.531 24.2147 11.7655 23.9774 11.7655 23.6865V22.8316C11.7655 22.5407 11.531 22.3035 11.2434 22.3035H9.35401C9.0664 22.3035 8.83189 22.5407 8.83189 22.8316V23.6865C8.83189 23.9774 9.0664 24.2147 9.35401 24.2147H9.67702L9.39826 25.6514H11.1947L10.9248 24.2147ZM7.6195 19.5642C7.68144 19.0674 6.23011 17.4337 5.96463 16.5295C5.39826 15.6164 5.19472 14.672 5.81419 13.7052C6.06197 13.3203 5.95578 12.2864 5.95578 11.7582C5.95578 6.51691 15.0399 6.51244 15.0399 11.7582C15.0399 12.4206 14.8894 13.2845 15.2434 13.8082C15.8363 14.681 15.531 15.7239 15.0266 16.534C14.708 17.4874 13.1903 19.0271 13.2921 19.5687C13.385 22.2542 7.6018 22.1647 7.6195 19.5642ZM22.562 18.5347L24.8363 25.2889L25.9823 21.2785L25.4204 20.6608C25.1637 20.2848 25.1106 19.9625 25.2522 19.6806C25.5576 19.0763 26.1814 19.1837 26.7655 19.1837C27.3806 19.1837 28.1416 19.0674 28.3319 19.8462C28.3938 20.1103 28.3142 20.3788 28.1372 20.6608L27.5752 21.2785L28.7213 25.2889L30.7788 18.5347C33.4558 20.9741 38.8496 19.5463 39.5 25.647H13.1195C13.8053 19.224 19.8629 20.9965 22.562 18.5347ZM20.708 9.59186C20.7213 9.97231 20.916 10.4691 21.3009 11.0465L21.3098 11.0555L22.5797 13.0965C23.0885 13.9156 23.6151 14.7436 24.2788 15.3524C24.9027 15.9342 25.6726 16.3281 26.677 16.3281C27.7699 16.3326 28.562 15.9208 29.2124 15.3076C29.8894 14.6675 30.4292 13.7813 30.9602 12.8996L32.3894 10.5229C32.6814 9.85147 32.7699 9.44416 32.6726 9.24722C32.6195 9.13532 32.4204 9.09504 32.1018 9.10846C31.8806 9.17113 31.6239 9.17113 31.3186 9.08608L31.8983 6.84365C27.4204 7.30915 24.9027 3.07046 21.7124 6.29312L22.1283 8.95181C21.6106 9.05923 20.6726 8.71906 20.708 9.59186ZM32.7611 8.34308C33.062 8.43708 33.2788 8.60716 33.4115 8.88019C33.6283 9.31436 33.5399 9.96336 33.1372 10.8899C33.1283 10.9078 33.1195 10.9212 33.1151 10.9391L31.6682 13.3472C31.1062 14.2781 30.5399 15.2136 29.7788 15.9342C28.9912 16.6862 28.0089 17.1875 26.6726 17.1785C25.4248 17.1741 24.4823 16.6951 23.7124 15.979C22.9691 15.2942 22.4071 14.4124 21.8717 13.553L20.6018 11.512C20.1328 10.8004 19.8894 10.1514 19.8717 9.61424C19.8629 9.35464 19.9071 9.12637 20.0045 8.916C20.1062 8.70116 20.2567 8.51764 20.4646 8.37441C20.5664 8.31175 20.6814 8.24909 20.8009 8.20433C20.7213 7.10326 20.6947 5.7381 20.7478 4.59675C20.7744 4.31924 20.8275 4.04173 20.9027 3.75975C21.2257 2.58706 22.0443 1.64712 23.0487 0.993636C23.4027 0.76984 23.7921 0.5729 24.2036 0.425195C26.6372 -0.461035 29.8673 0.026839 31.5974 1.92015C32.3053 2.69001 32.7478 3.71499 32.8407 5.07119L32.7611 8.34308ZM39.823 21.4709L40.3938 19.4612L40.1151 19.1524C39.9868 18.9689 39.9646 18.8033 40.031 18.6645C40.1814 18.3602 40.4956 18.4184 40.7876 18.4184C41.0929 18.4184 41.4735 18.3557 41.5708 18.7496C41.6018 18.8794 41.562 19.0137 41.4779 19.1569L41.1947 19.4702L41.7655 21.4799L40.7921 22.2587L39.823 21.4709ZM44.9381 20.7727C44.5045 19.8954 43.9558 19.1479 43.3142 18.4497C44.5177 18.9197 45.7522 19.3852 46.6593 19.967C47.239 20.334 47.5399 20.6116 47.7699 21.0547C48.2699 22.0036 48.323 22.8495 48.3938 23.879L48.5708 25.6514H41.5354C41.3452 24.8323 41.239 24.1475 40.8407 23.2389C42.0576 22.0259 43.354 21.0412 44.9381 20.7727ZM36.3053 19.2419C36.9779 18.942 37.6726 18.6869 38.2788 18.4497C37.9337 18.8301 37.6151 19.2195 37.3275 19.6358C37.0045 19.5015 36.6637 19.3673 36.3053 19.2419Z" fill="url(#paint1_linear_6_44)"/>
<defs>
<linearGradient id="paint0_linear_6_44" x1="24.4978" y1="29.1248" x2="24.4978" y2="55" gradientUnits="userSpaceOnUse">
<stop stop-color="#5E9FF1"/>
<stop offset="1" stop-color="#5F70F2"/>
</linearGradient>
<linearGradient id="paint1_linear_6_44" x1="24.4978" y1="-0.00244141" x2="24.4978" y2="25.6514" gradientUnits="userSpaceOnUse">
<stop stop-color="#5E9FF1"/>
<stop offset="1" stop-color="#5F70F2"/>
</linearGradient>
</defs>
</svg>
