<svg width="18" height="21" viewBox="0 0 18 21" fill="none" xmlns="http://www.w3.org/2000/svg">
<path d="M17.6042 13.3751C17.6021 12.7998 17.4275 12.2384 17.1029 11.7635C16.7783 11.2885 16.3186 10.9219 15.7834 10.7109L17.5755 4.00259C17.6129 3.85972 17.6168 3.71014 17.5869 3.56551C17.557 3.42088 17.4941 3.28512 17.403 3.16884C17.3099 3.05988 17.1936 2.97319 17.0626 2.91514C16.9315 2.85709 16.7892 2.82917 16.6459 2.83342H3.51675L3.2005 1.62592C3.14551 1.42171 3.02453 1.24143 2.85638 1.11315C2.68824 0.984881 2.4824 0.915829 2.27091 0.916757H0.354248V2.83342H1.533L3.90966 11.7076C3.96582 11.9167 4.09111 12.1006 4.26513 12.2293C4.43915 12.3581 4.65164 12.4242 4.868 12.4168H14.7292C14.9834 12.4168 15.2272 12.5177 15.4069 12.6974C15.5866 12.8772 15.6876 13.1209 15.6876 13.3751C15.6876 13.6293 15.5866 13.873 15.4069 14.0527C15.2272 14.2325 14.9834 14.3334 14.7292 14.3334H2.27091C2.01675 14.3334 1.77299 14.4344 1.59327 14.6141C1.41355 14.7938 1.31258 15.0376 1.31258 15.2918C1.31258 15.5459 1.41355 15.7897 1.59327 15.9694C1.77299 16.1491 2.01675 16.2501 2.27091 16.2501H3.40175C3.24414 16.6843 3.19349 17.1502 3.2541 17.6082C3.31471 18.0661 3.48478 18.5028 3.74993 18.8811C4.01507 19.2594 4.36748 19.5682 4.77729 19.7814C5.18711 19.9946 5.64228 20.106 6.10425 20.106C6.56622 20.106 7.02138 19.9946 7.4312 19.7814C7.84102 19.5682 8.19342 19.2594 8.45857 18.8811C8.72371 18.5028 8.89379 18.0661 8.9544 17.6082C9.01501 17.1502 8.96436 16.6843 8.80675 16.2501H11.0684C10.9249 16.6455 10.87 17.0676 10.9074 17.4866C10.9448 17.9055 11.0737 18.3112 11.285 18.6749C11.4963 19.0386 11.7849 19.3515 12.1303 19.5916C12.4757 19.8316 12.8696 19.993 13.2841 20.0642C13.6987 20.1354 14.1239 20.1148 14.5296 20.0038C14.9353 19.8929 15.3118 19.6942 15.6323 19.4219C15.9529 19.1495 16.2098 18.8102 16.385 18.4277C16.5601 18.0453 16.6492 17.629 16.6459 17.2084C16.6441 16.7133 16.5119 16.2274 16.2626 15.7997C16.6724 15.5413 17.0102 15.1836 17.2448 14.7597C17.4794 14.3358 17.603 13.8595 17.6042 13.3751ZM13.8572 10.5001H5.62508L4.03425 4.75009H15.4001L13.8572 10.5001ZM6.10425 18.1668C5.91471 18.1668 5.72942 18.1106 5.57183 18.0052C5.41423 17.8999 5.2914 17.7503 5.21886 17.5752C5.14633 17.4 5.12735 17.2074 5.16433 17.0215C5.20131 16.8356 5.29258 16.6648 5.4266 16.5308C5.56063 16.3968 5.73139 16.3055 5.91729 16.2685C6.10318 16.2315 6.29587 16.2505 6.47099 16.323C6.6461 16.3956 6.79577 16.5184 6.90107 16.676C7.00638 16.8336 7.06258 17.0189 7.06258 17.2084C7.06258 17.4626 6.96161 17.7063 6.78189 17.8861C6.60217 18.0658 6.35841 18.1668 6.10425 18.1668ZM13.7709 18.1668C13.5814 18.1668 13.3961 18.1106 13.2385 18.0052C13.0809 17.8999 12.9581 17.7503 12.8855 17.5752C12.813 17.4 12.794 17.2074 12.831 17.0215C12.868 16.8356 12.9592 16.6648 13.0933 16.5308C13.2273 16.3968 13.3981 16.3055 13.584 16.2685C13.7699 16.2315 13.9625 16.2505 14.1377 16.323C14.3128 16.3956 14.4624 16.5184 14.5677 16.676C14.673 16.8336 14.7292 17.0189 14.7292 17.2084C14.7292 17.4626 14.6283 17.7063 14.4486 17.8861C14.2688 18.0658 14.0251 18.1668 13.7709 18.1668Z" fill="#98FAEA"/>
</svg>
