<svg width="16" height="16" viewBox="0 0 16 16" fill="none" xmlns="http://www.w3.org/2000/svg">
<g clip-path="url(#clip0_6_64)">
<path d="M11.3335 4.00016H11.8335C11.8335 3.72402 11.6096 3.50016 11.3335 3.50016V4.00016ZM11.3335 6.00016V6.50016C11.6096 6.50016 11.8335 6.2763 11.8335 6.00016H11.3335ZM9.00016 14.6668H8.50016C8.50016 14.943 8.72402 15.1668 9.00016 15.1668V14.6668ZM7.00016 14.6668V15.1668C7.2763 15.1668 7.50016 14.943 7.50016 14.6668H7.00016ZM7.00016 10.0002H7.50016C7.50016 9.72402 7.2763 9.50016 7.00016 9.50016V10.0002ZM4.66683 10.0002H4.16683C4.16683 10.2763 4.39069 10.5002 4.66683 10.5002V10.0002ZM4.66683 8.00016V7.50016C4.39069 7.50016 4.16683 7.72402 4.16683 8.00016H4.66683ZM9.00016 8.00016H8.50016C8.50016 8.2763 8.72402 8.50016 9.00016 8.50016V8.00016ZM11.3335 8.00016H11.8335C11.8335 7.72402 11.6096 7.50016 11.3335 7.50016V8.00016ZM11.3335 10.0002V10.5002C11.6096 10.5002 11.8335 10.2763 11.8335 10.0002H11.3335ZM9.00016 10.0002V9.50016C8.72402 9.50016 8.50016 9.72402 8.50016 10.0002H9.00016ZM4.00016 1.8335H12.0002V0.833496H4.00016V1.8335ZM14.1668 4.00016V12.0002H15.1668V4.00016H14.1668ZM1.8335 12.0002V4.00016H0.833496V12.0002H1.8335ZM4.00016 14.1668C2.80355 14.1668 1.8335 13.1968 1.8335 12.0002H0.833496C0.833496 13.7491 2.25126 15.1668 4.00016 15.1668V14.1668ZM14.1668 12.0002C14.1668 13.1968 13.1968 14.1668 12.0002 14.1668V15.1668C13.7491 15.1668 15.1668 13.7491 15.1668 12.0002H14.1668ZM12.0002 1.8335C13.1968 1.8335 14.1668 2.80355 14.1668 4.00016H15.1668C15.1668 2.25126 13.7491 0.833496 12.0002 0.833496V1.8335ZM4.00016 0.833496C2.25126 0.833496 0.833496 2.25126 0.833496 4.00016H1.8335C1.8335 2.80355 2.80355 1.8335 4.00016 1.8335V0.833496ZM11.0002 4.50016H11.3335V3.50016H11.0002V4.50016ZM10.8335 4.00016V6.00016H11.8335V4.00016H10.8335ZM11.3335 5.50016H10.0002V6.50016H11.3335V5.50016ZM7.50016 14.6668V10.0002H6.50016V14.6668H7.50016ZM7.00016 9.50016H4.66683V10.5002H7.00016V9.50016ZM5.16683 10.0002V8.00016H4.16683V10.0002H5.16683ZM4.66683 8.50016H7.00016V7.50016H4.66683V8.50016ZM8.50016 7.00016V8.00016H9.50016V7.00016H8.50016ZM9.00016 8.50016H11.3335V7.50016H9.00016V8.50016ZM10.8335 8.00016V10.0002H11.8335V8.00016H10.8335ZM8.50016 10.0002V14.6668H9.50016V10.0002H8.50016ZM11.3335 9.50016H9.00016V10.5002H11.3335V9.50016ZM12.0002 14.1668H9.00016V15.1668H12.0002V14.1668ZM7.00016 14.1668H4.00016V15.1668H7.00016V14.1668ZM10.0002 5.50016C9.17173 5.50016 8.50016 6.17174 8.50016 7.00016H9.50016C9.50016 6.72402 9.72402 6.50016 10.0002 6.50016V5.50016ZM11.0002 3.50016C8.51488 3.50016 6.50016 5.51488 6.50016 8.00016H7.50016C7.50016 6.06717 9.06716 4.50016 11.0002 4.50016V3.50016Z" fill="#D5D4D5"/>
</g>
<defs>
<clipPath id="clip0_6_64">
<rect width="16" height="16" fill="white"/>
</clipPath>
</defs>
</svg>
