<svg width="14" height="14" viewBox="0 0 14 14" fill="none" xmlns="http://www.w3.org/2000/svg">
<path d="M7.03175 4.44909C7.03175 4.18494 6.81761 3.9708 6.55345 3.9708C6.2893 3.9708 6.07516 4.18494 6.07516 4.44909V9.5509C6.07516 9.81506 6.2893 10.0292 6.55345 10.0292C6.81761 10.0292 7.03175 9.81506 7.03175 9.5509V4.44909Z" fill="#98FAEA"/>
<path d="M5.11857 5.08682C5.11857 4.82267 4.90443 4.60853 4.64027 4.60853C4.37612 4.60853 4.16198 4.82267 4.16198 5.08682L4.16198 8.91318C4.16198 9.17733 4.37612 9.39147 4.64028 9.39147C4.90443 9.39147 5.11857 9.17733 5.11857 8.91318L5.11857 5.08682Z" fill="#98FAEA"/>
<path d="M8.94493 5.08682C8.94493 4.82267 8.73079 4.60853 8.46663 4.60853C8.20248 4.60853 7.98834 4.82267 7.98834 5.08682V8.91318C7.98834 9.17733 8.20248 9.39147 8.46663 9.39147C8.73079 9.39147 8.94493 9.17733 8.94493 8.91318V5.08682Z" fill="#98FAEA"/>
<path d="M3.20539 6.36227C3.20539 6.09812 2.99125 5.88398 2.7271 5.88398C2.46294 5.88398 2.2488 6.09812 2.2488 6.36227V7.63773C2.2488 7.90188 2.46294 8.11602 2.7271 8.11602C2.99125 8.11602 3.20539 7.90188 3.20539 7.63773V6.36227Z" fill="#98FAEA"/>
<path d="M10.8581 6.36227C10.8581 6.09812 10.644 5.88398 10.3798 5.88398C10.1157 5.88398 9.90152 6.09812 9.90152 6.36227V7.63773C9.90152 7.90188 10.1157 8.11602 10.3798 8.11602C10.644 8.11602 10.8581 7.90188 10.8581 7.63773V6.36227Z" fill="#98FAEA"/>
<path fill-rule="evenodd" clip-rule="evenodd" d="M6.73529 0.00451108C6.61414 -0.0015037 6.49277 -0.0015037 6.37162 0.00451112C5.90394 0.0277309 5.47336 0.163624 4.99338 0.386366C4.5261 0.603211 3.98311 0.916705 3.29617 1.31332L3.25727 1.33577C2.57033 1.73238 2.02735 2.04586 1.60592 2.34212C1.17302 2.64643 0.840049 2.95137 0.586098 3.34478C0.520315 3.44669 0.45963 3.5518 0.404265 3.65973C0.190532 4.07636 0.092934 4.5172 0.0458399 5.04425C-7.22217e-06 5.55735 -3.99083e-06 6.18433 7.63921e-08 6.97754V7.02246C-3.83879e-06 7.81567 -6.95609e-06 8.44265 0.0458402 8.95575C0.0929345 9.48281 0.190533 9.92364 0.404265 10.3403C0.45963 10.4482 0.520316 10.5533 0.586099 10.6552C0.840049 11.0486 1.17302 11.3536 1.60592 11.6579C2.02733 11.9541 2.57029 12.2676 3.2572 12.6642L3.29616 12.6867C3.98308 13.0833 4.52611 13.3968 4.99338 13.6136C5.47337 13.8364 5.90394 13.9723 6.37162 13.9955C6.49277 14.0015 6.61414 14.0015 6.73529 13.9955C7.20297 13.9723 7.63354 13.8364 8.11353 13.6136C8.58081 13.3968 9.12379 13.0833 9.81074 12.6867L9.84962 12.6642C10.5366 12.2676 11.0796 11.9541 11.501 11.6579C11.9339 11.3536 12.2669 11.0486 12.5208 10.6552C12.5866 10.5533 12.6473 10.4482 12.7026 10.3403C12.9164 9.92364 13.014 9.4828 13.0611 8.95575C13.1069 8.44266 13.1069 7.81569 13.1069 7.02249V6.97754C13.1069 6.18435 13.1069 5.55734 13.0611 5.04425C13.014 4.51719 12.9164 4.07636 12.7026 3.65973C12.6473 3.5518 12.5866 3.44669 12.5208 3.34478C12.2669 2.95137 11.9339 2.64643 11.501 2.34212C11.0796 2.04586 10.5366 1.73237 9.84962 1.33577L9.81072 1.31331C9.12379 0.916706 8.5808 0.603208 8.11353 0.386366C7.63354 0.163624 7.20297 0.0277308 6.73529 0.00451108ZM6.41905 0.959924C6.5086 0.955478 6.59831 0.955478 6.68785 0.959924C6.98938 0.974894 7.29513 1.06115 7.71086 1.25408C8.1349 1.45086 8.64121 1.74266 9.35188 2.15297C10.0626 2.56328 10.5684 2.85585 10.9509 3.12469C11.3258 3.38826 11.5534 3.60992 11.7171 3.86357C11.7657 3.93889 11.8106 4.01658 11.8515 4.09635C11.9893 4.36498 12.0675 4.67289 12.1083 5.12938C12.1499 5.595 12.1503 6.17938 12.1503 7C12.1503 7.82062 12.1499 8.405 12.1083 8.87062C12.0675 9.32711 11.9893 9.63502 11.8515 9.90364C11.8106 9.98342 11.7657 10.0611 11.7171 10.1364C11.5534 10.3901 11.3258 10.6117 10.9509 10.8753C10.5684 11.1441 10.0626 11.4367 9.35188 11.847C8.64121 12.2573 8.1349 12.5491 7.71086 12.7459C7.29513 12.9388 6.98939 13.0251 6.68785 13.0401C6.59831 13.0445 6.5086 13.0445 6.41905 13.0401C6.11752 13.0251 5.81177 12.9388 5.39604 12.7459C4.97201 12.5491 4.4657 12.2573 3.75502 11.847C3.04435 11.4367 2.53848 11.1441 2.15604 10.8753C1.7811 10.6117 1.55353 10.3901 1.38979 10.1364C1.34117 10.0611 1.29632 9.98342 1.25539 9.90365C1.11759 9.63502 1.03942 9.32711 0.998634 8.87062C0.957029 8.405 0.95659 7.82062 0.95659 7C0.956589 6.17938 0.957029 5.595 0.998633 5.12938C1.03942 4.67289 1.11759 4.36498 1.25539 4.09635C1.29632 4.01658 1.34117 3.93889 1.38979 3.86357C1.55352 3.60992 1.7811 3.38827 2.15604 3.12469C2.53848 2.85585 3.04434 2.56328 3.75502 2.15297C4.4657 1.74267 4.972 1.45086 5.39604 1.25408C5.81177 1.06115 6.11752 0.974894 6.41905 0.959924Z" fill="#98FAEA"/>
</svg>
