<svg width="16" height="16" viewBox="0 0 16 16" fill="none" xmlns="http://www.w3.org/2000/svg">
<circle cx="2.66683" cy="2.66683" r="1.33333" stroke="#D5D4D5"/>
<path d="M1.3335 5.6665H4.00016V14.6665H1.3335V5.6665Z" stroke="#D5D4D5" stroke-linejoin="round"/>
<path d="M6 5.6665V5.1665C5.72386 5.1665 5.5 5.39036 5.5 5.6665H6ZM8.66667 5.6665H9.16667C9.16667 5.39036 8.94281 5.1665 8.66667 5.1665V5.6665ZM8.66667 14.6665V15.1665C8.94281 15.1665 9.16667 14.9426 9.16667 14.6665H8.66667ZM6 14.6665H5.5C5.5 14.9426 5.72386 15.1665 6 15.1665V14.6665ZM14 14.6665V15.1665C14.2761 15.1665 14.5 14.9426 14.5 14.6665H14ZM11.3333 14.6665H10.8333C10.8333 14.9426 11.0572 15.1665 11.3333 15.1665V14.6665ZM8.66667 6.22745H8.16667C8.16667 6.38975 8.24545 6.54196 8.37797 6.63568C8.51049 6.7294 8.68026 6.75295 8.83329 6.69886L8.66667 6.22745ZM6 6.1665H8.66667V5.1665H6V6.1665ZM8.66667 14.1665H6V15.1665H8.66667V14.1665ZM6.5 14.6665V5.6665H5.5V14.6665H6.5ZM6.5 14.6665V9.99984H5.5V14.6665H6.5ZM13.5 9.99984V14.6665H14.5V9.99984H13.5ZM14 14.1665H11.3333V15.1665H14V14.1665ZM8.16667 9.99984V14.6665H9.16667V9.99984H8.16667ZM10.8333 9.99984V14.6665H11.8333V9.99984H10.8333ZM10 9.1665C10.4602 9.1665 10.8333 9.5396 10.8333 9.99984H11.8333C11.8333 8.98732 11.0125 8.1665 10 8.1665V9.1665ZM10 8.1665C8.98748 8.1665 8.16667 8.98732 8.16667 9.99984H9.16667C9.16667 9.5396 9.53976 9.1665 10 9.1665V8.1665ZM14.5 9.99984C14.5 7.51456 12.4853 5.49984 10 5.49984V6.49984C11.933 6.49984 13.5 8.06684 13.5 9.99984H14.5ZM8.83329 6.69886C9.19756 6.57011 9.59003 6.49984 10 6.49984V5.49984C9.47494 5.49984 8.96985 5.58997 8.50004 5.75603L8.83329 6.69886ZM8.16667 5.6665V6.22745H9.16667V5.6665H8.16667Z" fill="#D5D4D5"/>
</svg>
