<svg width="17" height="21" viewBox="0 0 17 21" fill="none" xmlns="http://www.w3.org/2000/svg">
<path d="M13.2916 0.916748H3.70825C2.94575 0.916748 2.21449 1.21965 1.67532 1.75882C1.13615 2.29798 0.833252 3.02925 0.833252 3.79175V17.2084C0.833252 17.9709 1.13615 18.7022 1.67532 19.2413C2.21449 19.7805 2.94575 20.0834 3.70825 20.0834H13.2916C14.0541 20.0834 14.7853 19.7805 15.3245 19.2413C15.8637 18.7022 16.1666 17.9709 16.1666 17.2084V3.79175C16.1666 3.02925 15.8637 2.29798 15.3245 1.75882C14.7853 1.21965 14.0541 0.916748 13.2916 0.916748ZM14.2499 17.2084C14.2499 17.4626 14.149 17.7063 13.9692 17.8861C13.7895 18.0658 13.5458 18.1667 13.2916 18.1667H3.70825C3.45409 18.1667 3.21033 18.0658 3.03061 17.8861C2.85089 17.7063 2.74992 17.4626 2.74992 17.2084V3.79175C2.74992 3.53758 2.85089 3.29383 3.03061 3.1141C3.21033 2.93438 3.45409 2.83341 3.70825 2.83341H13.2916C13.5458 2.83341 13.7895 2.93438 13.9692 3.1141C14.149 3.29383 14.2499 3.53758 14.2499 3.79175V17.2084ZM9.18034 14.6113C9.06969 14.4959 8.93193 14.4101 8.77962 14.3615C8.6273 14.313 8.46526 14.3033 8.30825 14.3334L8.13575 14.3909C8.07468 14.4119 8.01667 14.4409 7.96325 14.4772L7.8195 14.5922C7.73225 14.6833 7.66386 14.7908 7.61825 14.9084C7.54486 15.0829 7.52481 15.2753 7.56063 15.4612C7.59645 15.6471 7.68653 15.8182 7.8195 15.953C7.91484 16.0373 8.02124 16.1083 8.13575 16.1638C8.31118 16.236 8.5041 16.2545 8.69005 16.217C8.87601 16.1795 9.04664 16.0876 9.18034 15.953C9.35508 15.7769 9.4547 15.5398 9.45825 15.2917C9.46149 15.166 9.43523 15.0413 9.38159 14.9276C9.33305 14.8114 9.26499 14.7045 9.18034 14.6113Z" fill="#FFD600"/>
</svg>
