<svg width="21" height="21" viewBox="0 0 21 21" fill="none" xmlns="http://www.w3.org/2000/svg">
<path d="M19.1251 18.1667H16.2501C15.9959 18.1667 15.7522 18.0657 15.5725 17.886C15.3927 17.7063 15.2918 17.4625 15.2918 17.2084V14.3334C16.4357 14.3228 17.538 13.9034 18.3996 13.1509C19.2612 12.3984 19.8251 11.3625 19.9895 10.2304C20.1539 9.09836 19.9078 7.94484 19.2958 6.97838C18.6838 6.01193 17.7463 5.29631 16.6526 4.96087C16.0671 3.61538 15.0565 2.49899 13.7758 1.78278C12.495 1.06657 11.0148 0.790048 9.56187 0.995588C8.10895 1.20113 6.76349 1.87739 5.73169 2.92075C4.69988 3.96411 4.03863 5.31701 3.84928 6.77212C2.93559 6.99093 2.13407 7.53767 1.59694 8.30851C1.05981 9.07936 0.824472 10.0206 0.935619 10.9535C1.04677 11.8865 1.49666 12.7461 2.19986 13.3692C2.90305 13.9922 3.81059 14.3354 4.75011 14.3334H5.70844V17.2084C5.70844 17.4625 5.60747 17.7063 5.42775 17.886C5.24803 18.0657 5.00427 18.1667 4.75011 18.1667H1.87511C1.62094 18.1667 1.37719 18.2677 1.19746 18.4474C1.01774 18.6271 0.916775 18.8709 0.916775 19.125C0.916775 19.3792 1.01774 19.623 1.19746 19.8027C1.37719 19.9824 1.62094 20.0834 1.87511 20.0834H4.75011C5.51261 20.0834 6.24387 19.7805 6.78304 19.2413C7.32221 18.7021 7.62511 17.9709 7.62511 17.2084V14.3334H9.54177V19.125C9.54177 19.3792 9.64274 19.623 9.82246 19.8027C10.0022 19.9824 10.2459 20.0834 10.5001 20.0834C10.7543 20.0834 10.998 19.9824 11.1778 19.8027C11.3575 19.623 11.4584 19.3792 11.4584 19.125V14.3334H13.3751V17.2084C13.3751 17.9709 13.678 18.7021 14.2172 19.2413C14.7563 19.7805 15.4876 20.0834 16.2501 20.0834H19.1251C19.3793 20.0834 19.623 19.9824 19.8028 19.8027C19.9825 19.623 20.0834 19.3792 20.0834 19.125C20.0834 18.8709 19.9825 18.6271 19.8028 18.4474C19.623 18.2677 19.3793 18.1667 19.1251 18.1667ZM4.75011 12.4167C4.24178 12.4167 3.75427 12.2148 3.39482 11.8553C3.03538 11.4959 2.83344 11.0084 2.83344 10.5C2.83344 9.99171 3.03538 9.5042 3.39482 9.14475C3.75427 8.78531 4.24178 8.58337 4.75011 8.58337C5.00427 8.58337 5.24803 8.48241 5.42775 8.30269C5.60747 8.12296 5.70844 7.87921 5.70844 7.62504C5.71089 6.4916 6.11505 5.39572 6.84912 4.5321C7.58318 3.66848 8.59963 3.09304 9.71787 2.908C10.8361 2.72297 11.9837 2.94033 12.9569 3.52147C13.93 4.1026 14.6656 5.00988 15.033 6.08212C15.0878 6.2468 15.1863 6.39352 15.3179 6.5066C15.4496 6.61969 15.6095 6.6949 15.7805 6.72421C16.4458 6.83896 17.0494 7.18414 17.4857 7.69928C17.922 8.21442 18.1631 8.86665 18.1668 9.54171C18.1668 10.3042 17.8639 11.0355 17.3247 11.5746C16.7855 12.1138 16.0543 12.4167 15.2918 12.4167H4.75011Z" fill="#EB539F"/>
</svg>
