<svg width="14" height="14" viewBox="0 0 14 14" fill="none" xmlns="http://www.w3.org/2000/svg">
<path fill-rule="evenodd" clip-rule="evenodd" d="M3.91629 0.0166165C3.67261 -1.02028e-05 3.37578 -5.46578e-06 3.02021 2.08679e-07H2.9798C2.62424 -5.46578e-06 2.3274 -1.02028e-05 2.08371 0.0166165C1.83003 0.0339249 1.59041 0.0712392 1.3581 0.167466C0.819035 0.390752 0.390752 0.819035 0.167466 1.3581C0.0712392 1.59041 0.0339249 1.83003 0.0166165 2.08371C-1.02028e-05 2.3274 -5.46578e-06 2.62422 2.08679e-07 2.97979V3.0202C-5.46578e-06 3.37577 -1.02028e-05 3.67261 0.0166165 3.91629C0.0339249 4.16997 0.0712392 4.40959 0.167466 4.6419C0.390752 5.18097 0.819035 5.60925 1.3581 5.83254C1.59041 5.92876 1.83003 5.96608 2.08371 5.98339C2.3274 6.00001 2.62423 6.00001 2.97979 6H3.02021C3.37577 6.00001 3.6726 6.00001 3.91629 5.98339C4.16997 5.96608 4.40959 5.92876 4.6419 5.83254C5.18097 5.60925 5.60925 5.18097 5.83254 4.6419C5.92876 4.40959 5.96608 4.16997 5.98339 3.91629C6.00001 3.6726 6.00001 3.37577 6 3.02021V2.97979C6.00001 2.62423 6.00001 2.3274 5.98339 2.08371C5.96608 1.83003 5.92876 1.59041 5.83254 1.3581C5.60925 0.819035 5.18097 0.390752 4.6419 0.167466C4.40959 0.0712392 4.16997 0.0339249 3.91629 0.0166165ZM1.81732 1.27612C1.87904 1.25055 1.97281 1.22697 2.16539 1.21383C2.36336 1.20033 2.61904 1.2 3 1.2C3.38096 1.2 3.63664 1.20033 3.83461 1.21383C4.02719 1.22697 4.12096 1.25055 4.18268 1.27612C4.42771 1.37762 4.62239 1.57229 4.72388 1.81732C4.74945 1.87904 4.77303 1.97281 4.78617 2.16539C4.79968 2.36336 4.8 2.61904 4.8 3C4.8 3.38096 4.79968 3.63664 4.78617 3.83461C4.77303 4.02719 4.74945 4.12096 4.72388 4.18268C4.62239 4.42771 4.42771 4.62239 4.18268 4.72388C4.12096 4.74945 4.02719 4.77303 3.83461 4.78617C3.63664 4.79968 3.38096 4.8 3 4.8C2.61904 4.8 2.36336 4.79968 2.16539 4.78617C1.97281 4.77303 1.87904 4.74945 1.81732 4.72388C1.57229 4.62239 1.37762 4.42771 1.27612 4.18268C1.25055 4.12096 1.22697 4.02719 1.21383 3.83461C1.20033 3.63664 1.2 3.38096 1.2 3C1.2 2.61904 1.20033 2.36336 1.21383 2.16539C1.22697 1.97281 1.25055 1.87904 1.27612 1.81732C1.37761 1.57229 1.57229 1.37761 1.81732 1.27612Z" fill="#5E9FF1"/>
<path fill-rule="evenodd" clip-rule="evenodd" d="M11.9163 0.0166165C11.6726 -1.02028e-05 11.3758 -5.46578e-06 11.0202 2.08679e-07H10.9798C10.6242 -5.46578e-06 10.3274 -1.02028e-05 10.0837 0.0166165C9.83003 0.0339249 9.59041 0.0712392 9.3581 0.167466C8.81904 0.390752 8.39075 0.819035 8.16747 1.3581C8.07124 1.59041 8.03393 1.83003 8.01662 2.08371C7.99999 2.3274 7.99999 2.62423 8 2.97979V3.02021C7.99999 3.37577 7.99999 3.6726 8.01662 3.91629C8.03393 4.16997 8.07124 4.40959 8.16747 4.6419C8.39075 5.18097 8.81904 5.60925 9.3581 5.83254C9.59041 5.92876 9.83003 5.96608 10.0837 5.98339C10.3274 6.00001 10.6242 6.00001 10.9798 6H11.0202C11.3758 6.00001 11.6726 6.00001 11.9163 5.98339C12.17 5.96608 12.4096 5.92876 12.6419 5.83254C13.181 5.60925 13.6092 5.18097 13.8325 4.6419C13.9288 4.40959 13.9661 4.16997 13.9834 3.91629C14 3.6726 14 3.37577 14 3.02021V2.97979C14 2.62423 14 2.3274 13.9834 2.08371C13.9661 1.83003 13.9288 1.59041 13.8325 1.3581C13.6092 0.819035 13.181 0.390752 12.6419 0.167466C12.4096 0.0712392 12.17 0.0339249 11.9163 0.0166165ZM9.81732 1.27612C9.87904 1.25055 9.97281 1.22697 10.1654 1.21383C10.3634 1.20033 10.619 1.2 11 1.2C11.381 1.2 11.6366 1.20033 11.8346 1.21383C12.0272 1.22697 12.121 1.25055 12.1827 1.27612C12.4277 1.37762 12.6224 1.57229 12.7239 1.81732C12.7494 1.87904 12.773 1.97281 12.7862 2.16539C12.7997 2.36336 12.8 2.61904 12.8 3C12.8 3.38096 12.7997 3.63664 12.7862 3.83461C12.773 4.02719 12.7494 4.12096 12.7239 4.18268C12.6224 4.42771 12.4277 4.62239 12.1827 4.72388C12.121 4.74945 12.0272 4.77303 11.8346 4.78617C11.6366 4.79968 11.381 4.8 11 4.8C10.619 4.8 10.3634 4.79968 10.1654 4.78617C9.97281 4.77303 9.87904 4.74945 9.81732 4.72388C9.57229 4.62239 9.37761 4.42771 9.27612 4.18268C9.25056 4.12096 9.22697 4.02719 9.21383 3.83461C9.20033 3.63664 9.2 3.38096 9.2 3C9.2 2.61904 9.20033 2.36336 9.21383 2.16539C9.22697 1.97281 9.25056 1.87904 9.27612 1.81732C9.37761 1.57229 9.57229 1.37762 9.81732 1.27612Z" fill="#5E9FF1"/>
<path fill-rule="evenodd" clip-rule="evenodd" d="M3.91629 8.01662C3.6726 7.99999 3.37577 7.99999 3.02021 8H2.97979C2.62423 7.99999 2.3274 7.99999 2.08371 8.01662C1.83003 8.03393 1.59041 8.07124 1.3581 8.16747C0.819035 8.39075 0.390752 8.81904 0.167466 9.3581C0.0712392 9.59041 0.0339249 9.83003 0.0166165 10.0837C-1.02028e-05 10.3274 -5.46578e-06 10.6242 2.08679e-07 10.9798V11.0202C-5.46578e-06 11.3758 -1.02028e-05 11.6726 0.0166165 11.9163C0.0339249 12.17 0.0712392 12.4096 0.167466 12.6419C0.390752 13.181 0.819035 13.6092 1.3581 13.8325C1.59041 13.9288 1.83003 13.9661 2.08371 13.9834C2.3274 14 2.62423 14 2.97979 14H3.02021C3.37577 14 3.6726 14 3.91629 13.9834C4.16997 13.9661 4.40959 13.9288 4.6419 13.8325C5.18097 13.6092 5.60925 13.181 5.83254 12.6419C5.92876 12.4096 5.96608 12.17 5.98339 11.9163C6.00001 11.6726 6.00001 11.3758 6 11.0202V10.9798C6.00001 10.6242 6.00001 10.3274 5.98339 10.0837C5.96608 9.83003 5.92876 9.59041 5.83254 9.3581C5.60925 8.81904 5.18097 8.39075 4.6419 8.16747C4.40959 8.07124 4.16997 8.03393 3.91629 8.01662ZM1.81732 9.27612C1.87904 9.25056 1.97281 9.22697 2.16539 9.21383C2.36336 9.20033 2.61904 9.2 3 9.2C3.38096 9.2 3.63664 9.20033 3.83461 9.21383C4.02719 9.22697 4.12096 9.25056 4.18268 9.27612C4.42771 9.37761 4.62239 9.57229 4.72388 9.81732C4.74945 9.87904 4.77303 9.97281 4.78617 10.1654C4.79968 10.3634 4.8 10.619 4.8 11C4.8 11.381 4.79968 11.6366 4.78617 11.8346C4.77303 12.0272 4.74945 12.121 4.72388 12.1827C4.62239 12.4277 4.42771 12.6224 4.18268 12.7239C4.12096 12.7494 4.02719 12.773 3.83461 12.7862C3.63664 12.7997 3.38096 12.8 3 12.8C2.61904 12.8 2.36336 12.7997 2.16539 12.7862C1.97281 12.773 1.87904 12.7494 1.81732 12.7239C1.57229 12.6224 1.37762 12.4277 1.27612 12.1827C1.25055 12.121 1.22697 12.0272 1.21383 11.8346C1.20033 11.6366 1.2 11.381 1.2 11C1.2 10.619 1.20033 10.3634 1.21383 10.1654C1.22697 9.97281 1.25055 9.87904 1.27612 9.81732C1.37762 9.57229 1.57229 9.37761 1.81732 9.27612Z" fill="#5E9FF1"/>
<path fill-rule="evenodd" clip-rule="evenodd" d="M11.9163 8.01662C11.6726 7.99999 11.3758 7.99999 11.0202 8H10.9798C10.6242 7.99999 10.3274 7.99999 10.0837 8.01662C9.83003 8.03393 9.59041 8.07124 9.3581 8.16747C8.81904 8.39075 8.39075 8.81904 8.16747 9.3581C8.07124 9.59041 8.03393 9.83003 8.01662 10.0837C7.99999 10.3274 7.99999 10.6242 8 10.9798V11.0202C7.99999 11.3758 7.99999 11.6726 8.01662 11.9163C8.03393 12.17 8.07124 12.4096 8.16747 12.6419C8.39075 13.181 8.81904 13.6092 9.3581 13.8325C9.59041 13.9288 9.83003 13.9661 10.0837 13.9834C10.3274 14 10.6242 14 10.9798 14H11.0202C11.3758 14 11.6726 14 11.9163 13.9834C12.17 13.9661 12.4096 13.9288 12.6419 13.8325C13.181 13.6092 13.6092 13.181 13.8325 12.6419C13.9288 12.4096 13.9661 12.17 13.9834 11.9163C14 11.6726 14 11.3758 14 11.0202V10.9798C14 10.6242 14 10.3274 13.9834 10.0837C13.9661 9.83003 13.9288 9.59041 13.8325 9.3581C13.6092 8.81904 13.181 8.39075 12.6419 8.16747C12.4096 8.07124 12.17 8.03393 11.9163 8.01662ZM9.81732 9.27612C9.87904 9.25056 9.97281 9.22697 10.1654 9.21383C10.3634 9.20033 10.619 9.2 11 9.2C11.381 9.2 11.6366 9.20033 11.8346 9.21383C12.0272 9.22697 12.121 9.25056 12.1827 9.27612C12.4277 9.37762 12.6224 9.57229 12.7239 9.81732C12.7494 9.87904 12.773 9.97281 12.7862 10.1654C12.7997 10.3634 12.8 10.619 12.8 11C12.8 11.381 12.7997 11.6366 12.7862 11.8346C12.773 12.0272 12.7494 12.121 12.7239 12.1827C12.6224 12.4277 12.4277 12.6224 12.1827 12.7239C12.121 12.7494 12.0272 12.773 11.8346 12.7862C11.6366 12.7997 11.381 12.8 11 12.8C10.619 12.8 10.3634 12.7997 10.1654 12.7862C9.97281 12.773 9.87904 12.7494 9.81732 12.7239C9.57229 12.6224 9.37762 12.4277 9.27612 12.1827C9.25056 12.121 9.22697 12.0272 9.21383 11.8346C9.20033 11.6366 9.2 11.381 9.2 11C9.2 10.619 9.20033 10.3634 9.21383 10.1654C9.22697 9.97281 9.25056 9.87904 9.27612 9.81732C9.37762 9.57229 9.57229 9.37762 9.81732 9.27612Z" fill="#5E9FF1"/>
</svg>
