<svg width="49" height="37" viewBox="0 0 49 37" fill="none" xmlns="http://www.w3.org/2000/svg">
<path fill-rule="evenodd" clip-rule="evenodd" d="M3.31771 0H45.6823C46.5616 0.00214127 47.4042 0.358221 48.0259 0.990358C48.6477 1.6225 48.9979 2.47924 49 3.37322V33.6268C48.9968 34.5204 48.6463 35.3766 48.0248 36.0085C47.4033 36.6404 46.5612 36.9968 45.6823 37H3.31771C2.43877 36.9968 1.59673 36.6404 0.975217 36.0085C0.353708 35.3766 0.00315224 34.5204 0 33.6268L0 3.37322C0.00210603 2.47924 0.352326 1.6225 0.974061 0.990358C1.5958 0.358221 2.43844 0.00214127 3.31771 0V0ZM35.4102 22.0719C35.4667 21.8246 35.6176 21.6102 35.8296 21.476C36.0416 21.3418 36.2974 21.2988 36.5406 21.3563C36.7839 21.4138 36.9947 21.5672 37.1267 21.7828C37.2587 21.9983 37.301 22.2584 37.2445 22.5057L35.2028 31.3969C35.1462 31.6442 34.9953 31.8585 34.7833 31.9927C34.5713 32.1269 34.3156 32.17 34.0723 32.1125C33.8291 32.055 33.6183 31.9015 33.4863 31.686C33.3543 31.4704 33.3119 31.2104 33.3685 30.9631L35.4102 22.0719ZM6.45199 29.686C6.17067 29.686 5.90087 29.5723 5.70195 29.3701C5.50303 29.1678 5.39128 28.8935 5.39128 28.6075C5.39128 28.3215 5.50303 28.0472 5.70195 27.8449C5.90087 27.6427 6.17067 27.529 6.45199 27.529H16.4211C16.5604 27.529 16.6983 27.5569 16.827 27.6111C16.9557 27.6653 17.0726 27.7448 17.1711 27.8449C17.2696 27.9451 17.3477 28.0639 17.401 28.1948C17.4543 28.3256 17.4818 28.4659 17.4818 28.6075C17.4818 28.7491 17.4543 28.8894 17.401 29.0202C17.3477 29.151 17.2696 29.2699 17.1711 29.3701C17.0726 29.4702 16.9557 29.5497 16.827 29.6039C16.6983 29.6581 16.5604 29.686 16.4211 29.686H6.45199ZM6.45199 22.9517C6.17067 22.9517 5.90087 22.8381 5.70195 22.6358C5.50303 22.4336 5.39128 22.1592 5.39128 21.8732C5.39128 21.5872 5.50303 21.3129 5.70195 21.1106C5.90087 20.9084 6.17067 20.7948 6.45199 20.7948H23.7743C24.0556 20.7948 24.3254 20.9084 24.5243 21.1106C24.7232 21.3129 24.835 21.5872 24.835 21.8732C24.835 22.1592 24.7232 22.4336 24.5243 22.6358C24.3254 22.8381 24.0556 22.9517 23.7743 22.9517H6.45199ZM6.45199 16.2174C6.17067 16.2174 5.90087 16.1038 5.70195 15.9015C5.50303 15.6993 5.39128 15.425 5.39128 15.1389C5.39128 14.8529 5.50303 14.5786 5.70195 14.3764C5.90087 14.1741 6.17067 14.0605 6.45199 14.0605H33.8949C34.1762 14.0605 34.446 14.1741 34.6449 14.3764C34.8438 14.5786 34.9556 14.8529 34.9556 15.1389C34.9556 15.425 34.8438 15.6993 34.6449 15.9015C34.446 16.1038 34.1762 16.2174 33.8949 16.2174H6.45199ZM32.2121 29.1913C32.3845 29.3621 32.486 29.5936 32.4958 29.8381C32.5055 30.0827 32.4226 30.3217 32.2643 30.5061C32.106 30.6905 31.8841 30.8061 31.6445 30.8293C31.4049 30.8524 31.1656 30.7813 30.9759 30.6306L27.387 27.448C27.2942 27.3655 27.2183 27.2653 27.1637 27.1529C27.109 27.0406 27.0767 26.9185 27.0685 26.7934C27.0604 26.6684 27.0766 26.543 27.1162 26.4243C27.1558 26.3056 27.218 26.1961 27.2993 26.1019C27.3268 26.0679 27.3575 26.0366 27.391 26.0087L30.9799 22.83C31.1671 22.6634 31.4117 22.5791 31.66 22.5959C31.9083 22.6126 32.1399 22.7289 32.3038 22.9192C32.4677 23.1096 32.5506 23.3583 32.5341 23.6107C32.5177 23.8632 32.4033 24.0986 32.2161 24.2653L29.4526 26.7303L32.2121 29.1913ZM39.8763 30.6347C39.7831 30.7172 39.6748 30.7802 39.5576 30.8202C39.4404 30.8602 39.3167 30.8763 39.1934 30.8677C39.0701 30.859 38.9496 30.8257 38.839 30.7698C38.7283 30.7138 38.6296 30.6362 38.5484 30.5414C38.4673 30.4466 38.4052 30.3366 38.3659 30.2174C38.3266 30.0983 38.3108 29.9724 38.3193 29.8471C38.3278 29.7217 38.3605 29.5993 38.4156 29.4867C38.4706 29.3742 38.5469 29.2738 38.6401 29.1913L41.4036 26.7303L38.6401 24.2693C38.5475 24.1868 38.4717 24.0865 38.4171 23.9742C38.3625 23.8619 38.3302 23.7398 38.3221 23.6148C38.3139 23.4898 38.3301 23.3644 38.3696 23.2458C38.4091 23.1271 38.4712 23.0175 38.5524 22.9233C38.6336 22.8291 38.7322 22.752 38.8427 22.6965C38.9531 22.641 39.0732 22.6082 39.1962 22.5999C39.3191 22.5916 39.4425 22.6081 39.5592 22.6482C39.6758 22.6884 39.7836 22.7516 39.8763 22.8341L43.4652 26.0127C43.4987 26.0407 43.5294 26.0719 43.5569 26.106C43.6382 26.2001 43.7004 26.3097 43.74 26.4284C43.7796 26.547 43.7958 26.6725 43.7877 26.7975C43.7795 26.9225 43.7472 27.0447 43.6925 27.157C43.6379 27.2693 43.562 27.3696 43.4692 27.452L39.8803 30.6347H39.8763ZM47.054 9.44258H2.10946V33.9552C2.11025 34.0791 2.13575 34.2015 2.18442 34.3151C2.23308 34.4287 2.30389 34.5311 2.39258 34.616C2.47777 34.7029 2.57912 34.7717 2.69071 34.8183C2.80231 34.8649 2.92191 34.8885 3.04256 34.8877H46.109C46.2296 34.8885 46.3492 34.8649 46.4608 34.8183C46.5724 34.7717 46.6738 34.7029 46.759 34.616C46.8447 34.5297 46.9126 34.4267 46.9585 34.3132C47.0044 34.1997 47.0274 34.0779 47.0261 33.9552V9.44258H47.054ZM42.5241 3.79082C42.8484 3.79002 43.1657 3.88706 43.4357 4.06967C43.7057 4.25228 43.9164 4.51225 44.0411 4.81666C44.1657 5.12107 44.1988 5.45624 44.136 5.77975C44.0732 6.10325 43.9174 6.40055 43.6884 6.63399C43.4593 6.86744 43.1673 7.02655 42.8493 7.09117C42.5313 7.1558 42.2015 7.12304 41.9018 6.99704C41.6021 6.87103 41.3459 6.65746 41.1656 6.38334C40.9854 6.10923 40.8892 5.7869 40.8892 5.45716C40.8892 5.01592 41.0613 4.59269 41.3678 4.28031C41.6743 3.96792 42.0901 3.79189 42.5241 3.79082ZM31.4225 3.79082C31.7467 3.79082 32.0635 3.88855 32.3331 4.07165C32.6026 4.25475 32.8126 4.51499 32.9367 4.81948C33.0607 5.12396 33.0932 5.459 33.0299 5.78224C32.9667 6.10548 32.8106 6.40239 32.5814 6.63543C32.3522 6.86848 32.0602 7.02718 31.7423 7.09148C31.4243 7.15577 31.0948 7.12277 30.7953 6.99665C30.4959 6.87053 30.2399 6.65695 30.0598 6.38292C29.8797 6.1089 29.7836 5.78673 29.7836 5.45716C29.7836 5.01522 29.9563 4.59138 30.2636 4.27888C30.571 3.96638 30.9879 3.79082 31.4225 3.79082ZM36.9733 3.79082C37.2975 3.79082 37.6143 3.88855 37.8838 4.07165C38.1534 4.25475 38.3634 4.51499 38.4875 4.81948C38.6115 5.12396 38.644 5.459 38.5807 5.78224C38.5175 6.10548 38.3614 6.40239 38.1322 6.63543C37.903 6.86848 37.611 7.02718 37.293 7.09148C36.9751 7.15577 36.6456 7.12277 36.3461 6.99665C36.0466 6.87053 35.7907 6.65695 35.6106 6.38292C35.4305 6.1089 35.3344 5.78673 35.3344 5.45716C35.3344 5.01522 35.5071 4.59138 35.8144 4.27888C36.1218 3.96638 36.5386 3.79082 36.9733 3.79082Z" fill="url(#paint0_linear_6_50)"/>
<defs>
<linearGradient id="paint0_linear_6_50" x1="24.5" y1="0" x2="24.5" y2="37" gradientUnits="userSpaceOnUse">
<stop stop-color="#5E9FF1"/>
<stop offset="1" stop-color="#5F70F2"/>
</linearGradient>
</defs>
</svg>
