<svg width="21" height="19" viewBox="0 0 21 19" fill="none" xmlns="http://www.w3.org/2000/svg">
<path d="M17.2084 0.875H3.79175C3.02925 0.875 2.29798 1.1779 1.75882 1.71707C1.21965 2.25624 0.916748 2.9875 0.916748 3.75V11.4167C0.916748 12.1792 1.21965 12.9104 1.75882 13.4496C2.29798 13.9888 3.02925 14.2917 3.79175 14.2917H9.54175V16.2083H5.70841C5.45425 16.2083 5.21049 16.3093 5.03077 16.489C4.85105 16.6687 4.75008 16.9125 4.75008 17.1667C4.75008 17.4208 4.85105 17.6646 5.03077 17.8443C5.21049 18.024 5.45425 18.125 5.70841 18.125H15.2917C15.5459 18.125 15.7897 18.024 15.9694 17.8443C16.1491 17.6646 16.2501 17.4208 16.2501 17.1667C16.2501 16.9125 16.1491 16.6687 15.9694 16.489C15.7897 16.3093 15.5459 16.2083 15.2917 16.2083H11.4584V14.2917H17.2084C17.9709 14.2917 18.7022 13.9888 19.2413 13.4496C19.7805 12.9104 20.0834 12.1792 20.0834 11.4167V3.75C20.0834 2.9875 19.7805 2.25624 19.2413 1.71707C18.7022 1.1779 17.9709 0.875 17.2084 0.875ZM18.1667 11.4167C18.1667 11.6708 18.0658 11.9146 17.8861 12.0943C17.7063 12.274 17.4626 12.375 17.2084 12.375H3.79175C3.53758 12.375 3.29383 12.274 3.1141 12.0943C2.93438 11.9146 2.83341 11.6708 2.83341 11.4167V3.75C2.83341 3.49583 2.93438 3.25208 3.1141 3.07236C3.29383 2.89263 3.53758 2.79167 3.79175 2.79167H17.2084C17.4626 2.79167 17.7063 2.89263 17.8861 3.07236C18.0658 3.25208 18.1667 3.49583 18.1667 3.75V11.4167Z" fill="#E2792E"/>
</svg>
